<?xml version="1.0" encoding="UTF-8" standalone="no"?>
<svg width="903px" height="114px" viewBox="0 0 903 114" version="1.1" xmlns="http://www.w3.org/2000/svg" xmlns:xlink="http://www.w3.org/1999/xlink" xmlns:sketch="http://www.bohemiancoding.com/sketch/ns">
    <title>Untitled 3</title>
    <description>Created with Sketch (http://www.bohemiancoding.com/sketch)</description>
    <defs></defs>
    <g id="Page-1" stroke="none" stroke-width="1" fill="none" fill-rule="evenodd" sketch:type="MSPage">
        <path d="M423.060682,6.71971175 C440.486072,-2.78568657 463.069145,-2.19069217 479.868037,8.40311053 C488.493314,13.5984275 495.749037,21.0866497 500.3385,30.0405898 C511.105526,49.8205255 508.512115,75.6229655 494.787435,93.356701 C498.837818,99.5968861 502.844492,105.880607 506.749178,112.222377 C498.007344,112.149817 489.265509,112.280425 480.538245,112.193353 C477.813706,112.773835 477.026941,109.769839 475.642817,108.173513 C461.947276,114.791011 445.658325,115.864904 431.248867,110.916292 C418.631486,106.315969 407.237962,97.6377582 400.696155,85.8104306 C390.570197,68.7587618 390.453639,46.3521435 400.244494,29.1263301 C405.373037,19.6064197 413.502943,11.7844202 423.060682,6.71971175 Z M416.059682,55.155697 C416.293828,39.4114046 429.318239,25.1168629 445.108508,23.3336695 C457.167063,21.5359787 469.82562,27.1320163 476.77685,36.9903209 C484.269545,47.1675707 484.971985,61.4911074 479.015878,72.5527051 C470.235377,72.5527051 461.440241,72.5382076 452.645105,72.5672026 C455.849988,77.612335 459.142676,82.5994773 462.42073,87.6011172 C454.298766,90.5731061 445.049971,91.0080313 437.001178,87.6301122 C424.079206,82.5559848 415.181631,68.9573234 416.059682,55.155697 Z" id="Shape" fill="#000000" sketch:type="MSShapeGroup"></path>
        <path d="M0,23.0201471 C20.5148048,22.9761558 41.0296097,23.0201471 61.5589951,23.0054834 L61.5589951,41.5991639 L23.1830417,41.5991639 L23.1830417,56.2629498 L54.5749215,56.2629498 C54.5749215,62.4657312 54.560341,68.6538489 54.589502,74.8566303 C44.1206819,74.8566303 33.6518618,74.8419665 23.1830417,74.8566303 L23.1830417,92.9224145 C37.1220278,92.9370783 51.0610139,92.893087 65,92.9517421 C64.6938089,99.535782 62.2296994,105.7239 60.4508748,112 C40.3005832,111.970672 20.1648721,111.985336 0.0145805294,111.985336 C0,82.3351611 0.0437415882,52.6703222 0,23.0201471 L0,23.0201471 Z" id="Shape" fill="#000000" sketch:type="MSShapeGroup"></path>
        <path d="M94.9612299,23 C104.629512,23.0586369 114.312333,23.0293184 123.980615,23.0146592 C133.721591,52.6556111 143.418951,82.296563 153,111.981493 C145.119987,111.981493 137.239973,111.966833 129.35996,111.996152 C128.051471,108.184753 126.801136,104.373355 125.565341,100.561957 C116.94385,100.561957 108.32236,100.576616 99.700869,100.547298 C101.69268,94.243831 103.844418,87.9843421 105.865307,81.6808756 C110.372326,81.6662164 114.879345,81.6808756 119.386364,81.6368979 C116.100602,71.3607816 112.582219,61.1579613 109.529078,50.8085488 C102.913937,71.1408932 96.2115642,91.4585783 89.7999666,111.864219 C81.8763369,112.113426 73.9236297,111.937515 66,111.966833 C75.6537433,82.3112222 85.3947193,52.6849296 94.9612299,23 L94.9612299,23 Z" id="Shape" fill="#000000" sketch:type="MSShapeGroup"></path>
        <path d="M154.069584,23.0088212 C169.713454,23.0381136 185.34269,22.9648827 200.971926,23.0234674 C211.625562,23.2285139 221.547493,29.9657553 226.537726,39.2514315 C232.245031,50.0017253 230.85479,64.1938708 222.674319,73.3184391 C219.659692,76.9360448 215.576773,79.3380178 211.537757,81.6521138 C217.69872,91.6554526 223.713342,101.761315 229.684061,111.867177 C221.591395,111.896469 213.498729,111.867177 205.406063,111.881823 C196.332911,96.488691 187.054882,81.1980823 177.893925,65.8488888 C186.235371,65.204457 195.162182,67.4306759 203.079238,64.0474091 C211.567026,59.5803251 210.688979,45.7836264 201.615827,42.5614675 C193.786575,40.5549412 185.503665,42.0342051 177.48417,41.5801736 C177.498804,65.0140567 177.48417,88.4479399 177.48417,111.881823 C171.381743,111.501022 164.928098,112.702009 159.059818,111.295976 C157.069578,104.763781 153.586659,98.392694 154.040316,91.3771753 C154.113487,68.5877239 154.040316,45.7982726 154.069584,23.0088212 L154.069584,23.0088212 Z" id="Shape" fill="#000000" sketch:type="MSShapeGroup"></path>
        <path d="M232.018334,23 C256.674,23.0293294 281.344334,23.0146647 306,23 C305.955998,29.423134 305.970665,35.8462679 305.985333,42.2547372 C297.786334,42.2400725 289.587335,42.2400725 281.403003,42.2547372 C281.403003,65.4982699 281.388336,88.7418026 281.403003,112 L256.629999,112 L256.629999,42.2400725 C248.416332,42.2400725 240.217333,42.2547372 232.003667,42.2400725 C232.003667,35.8316032 231.989,29.4084693 232.018334,23 L232.018334,23 Z" id="Shape" fill="#000000" sketch:type="MSShapeGroup"></path>
        <path d="M313,23.0146647 C320.787842,23.0293294 328.575684,23.0146647 336.363527,23.0146647 C336.30475,34.1011699 336.378221,45.1730104 336.319444,56.2595156 C345.20934,56.2888449 354.113929,56.2888449 363.003824,56.2448509 C362.945048,45.1730104 363.018519,34.0865052 362.959742,23 C370.644726,23.0439941 378.315016,22.9706706 386,23.0586588 C385.92653,52.7106607 386,82.347998 385.970612,112 L362.98913,112 C362.98913,99.7843137 362.959742,87.5686275 363.003824,75.3676059 C354.113929,75.3089471 345.224034,75.3382765 336.334138,75.3529412 C336.348833,87.5686275 336.334138,99.7843137 336.334138,112 L313.029388,112 C313,82.3333333 313.058776,52.6666667 313,23.0146647 L313,23.0146647 Z" id="Shape" fill="#000000" sketch:type="MSShapeGroup"></path>
        <path d="M514.006475,23.0144906 C521.990328,23.0144906 529.98875,23.0144906 537.972604,23 C537.987173,41.9682605 537.826913,60.9510117 538.03088,79.9047816 C538.263985,88.3093585 546.903447,94.2360342 554.931007,93.2216887 C562.390373,92.9898383 569.631204,86.961728 569.325253,79.1802491 C569.441806,60.443839 569.310684,41.7219195 569.383529,23 C577.25083,23.0434719 585.132699,22.9855094 593,23.0434719 C592.927155,40.2728545 593.043707,57.5022371 592.956293,74.7316196 C592.708618,85.3532659 589.124626,96.4531036 580.630855,103.394125 C572.239068,111.233566 560.263288,113.783921 549.05967,112.798557 C537.069321,112.233421 525.078972,106.060404 518.81427,95.7140805 C513.991906,87.6282979 514.5601,77.9485439 514.006475,68.9208691 C513.991906,53.6187429 514.006475,38.3166168 514.006475,23.0144906 L514.006475,23.0144906 Z" id="Shape" fill="#000000" sketch:type="MSShapeGroup"></path>
        <path d="M621.014522,23 L650.014522,23 C659.61342,52.6862228 669.284927,82.3577785 679,112 L655.184276,112 C653.935403,108.186552 652.672008,104.387772 651.423135,100.574324 L625.64697,100.574324 C627.825238,94.31147 629.771157,87.9752802 631.789685,81.6684245 L645.149725,81.6684245 C642.129194,71.4014502 638.803706,61.2224786 635.332999,51.0875082 C628.827241,71.4161173 622.205308,91.7007251 615.641462,112 L592,112 C601.671507,82.3284443 611.299449,52.6568886 621.014522,23 L621.014522,23 Z" id="Shape" fill="#000000" sketch:type="MSShapeGroup"></path>
        <path d="M679,23.0146574 C686.895597,23.0439723 694.791195,23.0293149 702.686792,23.0293149 C702.65744,37.1004611 702.642764,51.1716074 702.686792,65.2427536 C711.330856,51.2302372 719.754784,37.0858037 728.310793,23.0146574 C737.512539,23.0293149 746.728962,23.0586298 755.930708,23 C747.169236,37.1151186 738.715958,51.4207839 730.042541,65.5798748 C739.258963,81.102108 748.783578,96.4337945 758,111.956028 C748.886309,112 739.772617,111.926713 730.658926,112 C721.222367,96.8002306 712.167379,81.365942 702.716143,66.18083 C702.598737,81.4392292 702.701468,96.7122859 702.65744,111.970685 L684.180568,111.970685 C682.639606,106.078393 679.763143,100.479249 679.044027,94.4110672 C678.955973,70.6073781 679.073379,46.8036891 679,23.0146574 L679,23.0146574 Z" id="Shape" fill="#000000" sketch:type="MSShapeGroup"></path>
        <path d="M762,23.4173759 C782.42782,23.4901067 802.85564,23.4028297 823.28346,23.4755605 C823.239592,29.6140388 823.268837,35.7525171 823.268837,41.8909954 C810.591014,41.8909954 797.91319,41.8764493 785.235366,41.8909954 C785.235366,46.7348658 785.235366,51.5787361 785.249988,56.4371526 C795.705172,56.4516987 806.174978,56.4226064 816.644784,56.4371526 C816.644784,62.590177 816.615539,68.7432015 816.659407,74.896226 C806.189601,74.8671337 795.719795,74.8816798 785.249988,74.8816798 L785.249988,92.8025454 L826.032515,92.8025454 C831.384399,89.2387369 836.736284,85.6894746 842.10279,82.1402122 C845.334393,86.285867 849.063164,90.4606141 854.385803,91.8861375 C861.492403,94.242615 870.163625,95.449946 876.729188,91.0570065 C880.472583,88.3368752 878.688621,82.1547584 874.491925,80.9474273 C862.457497,76.7435879 848.215051,77.5290804 838.154679,68.7141092 C826.55893,58.2263299 829.044778,37.3380483 841.722602,28.7121771 C850.978729,22.1373141 863.042403,21.2354523 874.024001,22.4718757 C884.830128,23.5337451 895.182953,28.5085309 902.333421,36.7271097 C897.215499,41.3527876 892.141445,46.0366502 886.965032,50.6186897 C881.393809,43.2146957 871.304191,41.3236953 862.545233,42.0510032 C859.006556,42.312834 854.765992,44.814773 855.482501,48.8731509 C856.125897,52.8733441 860.512687,54.1534059 863.919761,54.9679907 C874.711265,57.3681066 886.643334,58.2408761 895.548519,65.45577 C903.547099,72.2197331 904.395212,84.1475819 901.426817,93.5443994 C898.078234,103.813986 888.207956,110.737957 877.840508,112.759873 C860.117876,115.960028 839.192886,113.501727 826.880628,99.0428468 C826.880628,103.261232 826.866005,107.494164 826.880628,111.71255 L762.014623,111.71255 C762.014623,82.2856738 762.043868,52.8587979 762,23.4173759 L762,23.4173759 Z" id="Shape" fill="#000000" sketch:type="MSShapeGroup"></path>
    </g>
</svg>